PathFileType	4	(X/Y/Z)	/Users/niels/Desktop/University/Third Semester/Perception and Action/Exam/Gymnastics Motion Tracking/Code for Gym Tracking/Analyzed Data/Webcam_Backflip/id3_2_trajectory_Sports2D/id3_2_trajectory_Sports2D_px_person00.trc
DataRate	CameraRate	NumFrames	NumMarkers	Units	OrigDataRate	OrigDataStartFrame	OrigNumFrames
29.8125	29.8125	11	22	m	29.8125	100	160
Frame#	Time	Hip			RHip			RKnee			RAnkle			RBigToe			RSmallToe			RHeel			LHip			LKnee			LAnkle			LBigToe			LSmallToe			LHeel			Neck			Head			Nose			RShoulder			RElbow			RWrist			LShoulder			LElbow			LWrist		
		X1	Y1	Z1	X2	Y2	Z2	X3	Y3	Z3	X4	Y4	Z4	X5	Y5	Z5	X6	Y6	Z6	X7	Y7	Z7	X8	Y8	Z8	X9	Y9	Z9	X10	Y10	Z10	X11	Y11	Z11	X12	Y12	Z12	X13	Y13	Z13	X14	Y14	Z14	X15	Y15	Z15	X16	Y16	Z16	X17	Y17	Z17	X18	Y18	Z18	X19	Y19	Z19	X20	Y20	Z20	X21	Y21	Z21	X22	Y22	Z22
100	3.354297693920335	1.1620452095775349	-0.5521932233691117	0.0	1.1729999685930375	-0.5431814987827595	0.0	1.1984301899483707	-0.6654958215824409	0.0	1.2059423803217442	-0.7938955983649862	0.0	1.2430227811951278	-0.8179171752774348	0.0	1.2383430052167281	-0.8217938632623042	0.0	1.1978201700116011	-0.8110319622375564	0.0	1.151973961076007	-0.5434961420201925	0.0	1.1917704537119451	-0.6629435634412553	0.0	1.1953655586927698	-0.7787332298131334	0.0	1.2387152076267076	-0.8012623645919229	0.0	1.2244887562296096	-0.7974314549743444	0.0	1.1807803510938808	-0.7952259188127964	0.0	1.1626134339145004	-0.39214317760632644	0.0	1.178092342305064	-0.3027091819717853	0.0	1.19824959947337	-0.3522101628186077	0.0	1.1807809854751348	-0.40643031702463195	0.0	1.2632208851772297	-0.41614126899227205	0.0	1.3221869931810524	-0.3766837061708002	0.0	1.1396634303291107	-0.4081277302106959	0.0	1.1969960912809552	-0.42408132481657623	0.0	1.232463955753938	-0.3945989273261626	0.0
101	3.3878406708595383	1.174028018691581	-0.5628238943501293	0.0	1.1845647918489475	-0.5539649555378005	0.0	1.2051931752841254	-0.6748033547754567	0.0	1.2054490607738066	-0.8029176149162318	0.0	1.2422864187616347	-0.8244578716424696	0.0	1.2377671696394468	-0.8286726947085219	0.0	1.1966236727457438	-0.8194599971380879	0.0	1.1647045597532126	-0.5543230679280483	0.0	1.1977471196624487	-0.6741110150426668	0.0	1.1970756279812997	-0.7907167295970552	0.0	1.2392825205612643	-0.8104026941267422	0.0	1.225551725444023	-0.8070762722702274	0.0	1.182288007188462	-0.8064153846755364	0.0	1.1675163510497895	-0.401648855197269	0.0	1.1789651963538719	-0.3136048061795744	0.0	1.201214138157458	-0.3608360457183553	0.0	1.1863131021264872	-0.4169814584356156	0.0	1.2670572376578542	-0.42667057370173234	0.0	1.3218381909821075	-0.38086608234534336	0.0	1.1452719288082323	-0.4193784543424451	0.0	1.1984715273971454	-0.4360342302127474	0.0	1.2307969427452978	-0.4024721456289218	0.0
102	3.421383647798742	1.184050363998545	-0.5720536861654202	0.0	1.1936003404920867	-0.5639672263513779	0.0	1.2103102308711482	-0.6830323246658899	0.0	1.204589917148299	-0.8102158449035315	0.0	1.2420291354372357	-0.8290388555168209	0.0	1.2374799636906637	-0.8336787089955293	0.0	1.1951073131473888	-0.8261311976269176	0.0	1.1760273829726808	-0.5640496376560665	0.0	1.2027645936583033	-0.6830700382393409	0.0	1.197895753979056	-0.800348332193515	0.0	1.239404482748656	-0.8174389308521337	0.0	1.2263085961679334	-0.8147366080409908	0.0	1.1831162555460157	-0.8151569146922001	0.0	1.172915521334695	-0.40996003226621375	0.0	1.1808418932602947	-0.32376663597516153	0.0	1.2048829715698022	-0.3689866873723903	0.0	1.1909471283701571	-0.42695285904520064	0.0	1.2689511847558994	-0.44009754753435515	0.0	1.3210881065743505	-0.38932095112752807	0.0	1.1515401171549582	-0.42920377066389953	0.0	1.1996091136345168	-0.4497698319551994	0.0	1.2299433788604874	-0.41255524672365534	0.0
103	3.454926624737945	1.1920486039539655	-0.5788809640524409	0.0	1.2003246234918585	-0.5720318599851242	0.0	1.2138680031040885	-0.6895564878369537	0.0	1.2036702702218192	-0.8154384107769116	0.0	1.242260897523983	-0.8317901983930948	0.0	1.2374928749095206	-0.836891021501782	0.0	1.1935776632276864	-0.8308215558229473	0.0	1.1855657254718812	-0.571761601581023	0.0	1.2066699859427386	-0.6894979984372139	0.0	1.1984163453650054	-0.807343334386685	0.0	1.2397466233324623	-0.8224848388600667	0.0	1.2272995369515916	-0.8205500101563855	0.0	1.18386466970408	-0.8212638696544796	0.0	1.178515542692393	-0.41601814937870224	0.0	1.1840442700482168	-0.3317436687589363	0.0	1.2093083206140256	-0.37563308573160625	0.0	1.1946929672827085	-0.43494926333957684	0.0	1.2685904664522596	-0.4551861216548798	0.0	1.3203743049974928	-0.4022265958983845	0.0	1.1579418580340413	-0.43646094484886006	0.0	1.2000619647961919	-0.46408320479506965	0.0	1.230355667542093	-0.4246403789523264	0.0
104	3.4884696016771484	1.198165069357645	-0.5827352678717783	0.0	1.2051029928496708	-0.5772577932668269	0.0	1.2161439721239549	-0.6937025938148341	0.0	1.2028949004801612	-0.8183225690647178	0.0	1.242794414844563	-0.8328931942158124	0.0	1.2375951920462966	-0.8384582020355335	0.0	1.1922689604677366	-0.8334122182613269	0.0	1.193198514123587	-0.5767257966279404	0.0	1.2096028417340485	-0.6930774362945865	0.0	1.1989131326589204	-0.8114204972819992	0.0	1.2403987534936405	-0.8255370205008775	0.0	1.2284143890571633	-0.8243918933730882	0.0	1.1846855074245317	-0.8246554197084737	0.0	1.1839696840181624	-0.4193321090432407	0.0	1.1884483293415857	-0.33657227951959645	0.0	1.2142397029193521	-0.3799193581498402	0.0	1.1977786799770307	-0.4400941257454237	0.0	1.2657541366856169	-0.47044952882929514	0.0	1.3197968779040652	-0.41956527966270435	0.0	1.1639713390313966	-0.4405743061586803	0.0	1.1994678941420684	-0.47763303533836043	0.0	1.2318686193529704	-0.43891199993619695	0.0
105	3.522012578616352	1.2026839564110856	-0.5835277705900437	0.0	1.2084007405665735	-0.5792128551059992	0.0	1.2175120482074506	-0.6950201097633385	0.0	1.2023497741327314	-0.8186963606959149	0.0	1.2433625855436854	-0.8325351410367352	0.0	1.2375384518230137	-0.8384926673030856	0.0	1.191284277304304	-0.8338290491458885	0.0	1.1990062261892709	-0.5785553437869506	0.0	1.2118443373842909	-0.6936773928600406	0.0	1.1993967407417028	-0.8124082666681871	0.0	1.2410980167104955	-0.8265406296663638	0.0	1.2292524661016837	-0.8260202401064056	0.0	1.1854177545830946	-0.8253411861756589	0.0	1.1889885208417523	-0.4198576665318806	0.0	1.1935143075574857	-0.33792486193567606	0.0	1.2192436880005009	-0.38128631540436947	0.0	1.2004637750340053	-0.44207965182822356	0.0	1.2603785956344669	-0.48437359333635016	0.0	1.318847720897917	-0.44102936351385447	0.0	1.1693148518072252	-0.44147409791749803	0.0	1.1979372966575348	-0.4890282169458066	0.0	1.2338100440478925	-0.4557377454029894	0.0
106	3.555555555555555	1.2059571397910782	-0.5815651939739205	0.0	1.210752774871509	-0.5780555621495168	0.0	1.2183711257844585	-0.6934976030400825	0.0	1.202036701682841	-0.8165669903776378	0.0	1.2436959300594124	-0.8309024233519499	0.0	1.2371501816485515	-0.8370232463930992	0.0	1.1905938416560504	-0.8320797181456768	0.0	1.2032006830788806	-0.5773644781379083	0.0	1.213624022170749	-0.6915013078744556	0.0	1.1997488469958115	-0.8104301451255934	0.0	1.24155019725389	-0.8255133164333976	0.0	1.2295976462722233	-0.8253549007724941	0.0	1.1858244480984723	-0.82351561549112	0.0	1.1934246445712755	-0.4177686561600577	0.0	1.1985713501085735	-0.3361093033926144	0.0	1.2239284788567075	-0.3796013979267429	0.0	1.2029187006059368	-0.44105024954731364	0.0	1.2527332367285535	-0.4956216325976457	0.0	1.3162619558638975	-0.46574731989344553	0.0	1.1738997103900255	-0.4394490259697092	0.0	1.1959417624816226	-0.4971410299031094	0.0	1.2351600868662258	-0.47515038790112557	0.0
107	3.5890985324947584	1.2083865364682882	-0.5774573634663831	0.0	1.212682886916634	-0.5744824028608269	0.0	1.2190428747465825	-0.6896063294126735	0.0	1.201905846663972	-0.8122567828113285	0.0	1.243573984272544	-0.8282571316737853	0.0	1.23632454563441	-0.8341682863526468	0.0	1.1901060834647303	-0.828406971561529	0.0	1.206115749405474	-0.5737736223682526	0.0	1.2150380718916518	-0.6871192415262188	0.0	1.1998390491118733	-0.8059819021258517	0.0	1.2416456084904655	-0.8227034037381267	0.0	1.22958851176624	-0.822633151743852	0.0	1.1857563024811413	-0.8196518300821557	0.0	1.1972937231943035	-0.41340565339344393	0.0	1.2031405552150762	-0.331899628565732	0.0	1.2280704207439714	-0.37522922256273755	0.0	1.2052047374695602	-0.4375035520678619	0.0	1.2435353984383297	-0.5032255731309863	0.0	1.3102277240084974	-0.4919696814550292	0.0	1.177848555073076	-0.43504236371863697	0.0	1.1938252248473709	-0.501460848704069	0.0	1.234712212108407	-0.49616140356070665	0.0
108	3.622641509433962	1.210418528767247	-0.5719713696140618	0.0	1.2146010851315483	-0.5694489848185488	0.0	1.2196828950247103	-0.6841523868702538	0.0	1.2018907458050414	-0.806413160573137	0.0	1.242916277938501	-0.8248794637642866	0.0	1.235031696732007	-0.8302484833820374	0.0	1.1897875212534896	-0.8233188409000518	0.0	1.2082193783609396	-0.5686700165878372	0.0	1.216098473070989	-0.681363106870256	0.0	1.1996093560363676	-0.7998290013854272	0.0	1.241487202427334	-0.8185321684510602	0.0	1.2295330056174334	-0.8183002322842602	0.0	1.1852272093535234	-0.8144033433915969	0.0	1.2006908981901543	-0.4073155230635566	0.0	1.207079545569894	-0.32626112790299866	0.0	1.2316335897626214	-0.3689227219933006	0.0	1.2073132553708408	-0.43217106921520376	0.0	1.2337514230414395	-0.506737821883717	0.0	1.299057392805989	-0.5171073517750627	0.0	1.1813861514880906	-0.4289704449935465	0.0	1.1916097621327724	-0.5021191393578647	0.0	1.2313388308713726	-0.5165666387491955	0.0
109	3.656184486373165	1.212489050377355	-0.5657911044771989	0.0	1.2167769425839792	-0.5637476153796034	0.0	1.2202983414681665	-0.6780351272391981	0.0	1.2019540183300752	-0.79984013866481	0.0	1.2418598598483055	-0.8209698742462	0.0	1.2333926026404605	-0.8256873606591673	0.0	1.1896913674653777	-0.8174530521135831	0.0	1.2100509757912172	-0.5628235934624194	0.0	1.216795729891039	-0.6751038483526451	0.0	1.199128997056852	-0.7927953460651214	0.0	1.241248567811159	-0.8134058342170731	0.0	1.2296137718373852	-0.8128563941499194	0.0	1.1844351306186174	-0.8084186810496788	0.0	1.203690719771804	-0.4002243921582983	0.0	1.2105473823789334	-0.32007672242240043	0.0	1.2347469254713235	-0.36158953815708844	0.0	1.2092467975646204	-0.4258144009293327	0.0	1.224124313828553	-0.5062729854306214	0.0	1.2820651089381745	-0.5382842365678921	0.0	1.1847028780098876	-0.42203010336275826	0.0	1.1891063743259884	-0.49963755516122016	0.0	1.224165674513173	-0.5336917540790298	0.0
110	3.6897274633123684	1.2148990728066869	-0.5593768500911943	0.0	1.2193336337392844	-0.5577640897997185	0.0	1.2208800427431816	-0.6720032967175776	0.0	1.202109024080357	-0.7932947227430729	0.0	1.2407567073112638	-0.8167523628043508	0.0	1.2317300362450392	-0.820921566976655	0.0	1.1898439460480448	-0.8114684758167835	0.0	1.2121036470924076	-0.5566377934217943	0.0	1.2171417306749894	-0.6690192625857357	0.0	1.1985689590055726	-0.7856047891370469	0.0	1.2409669213666406	-0.8077501311242269	0.0	1.2297399967370988	-0.8068946401809383	0.0	1.18369581005714	-0.8022767605637183	0.0	1.206334292498965	-0.39294514325799357	0.0	1.2138247006011487	-0.3139556712133035	0.0	1.237593586312461	-0.35406736809834305	0.0	1.2110623068992064	-0.41907904502305354	0.0	1.2148534516767402	-0.502434767711359	0.0	1.2601143945690294	-0.553134984488997	0.0	1.187849854135713	-0.4149859609510857	0.0	1.1859545536039875	-0.4947228227023524	0.0	1.212810514285689	-0.5454064746678725	0.0
